# AST/ASF file generated using VICON BodyLanguage
# -----------------------------------------------
:version 1.10
:name VICON
:units
  mass 1.0
  length 0.45
  angle deg
:documentation
   .ast/.asf automatically generated from VICON data using
   VICON BodyBuilder and BodyLanguage model FoxedUp or BRILLIANT.MOD
:root
   order TX TY TZ RX RY RZ
   axis XYZ
   position 0 0 0  
   orientation 0 0 0 
:bonedata
  begin
     id 1 
     name lhipjoint
     direction 0.541323 -0.757556 0.364798 
     length 2.47576 
     axis 0 0 0  XYZ
  end
  begin
     id 2 
     name lfemur
     direction 0.34202 -0.939693 0  
     length 7.46493  
     axis 0 0 20  XYZ
    dof rx ry rz
    limits (-160.0 20.0)
           (-70.0 70.0)
           (-60.0 70.0)
  end
  begin
     id 3 
     name ltibia
     direction 0.34202 -0.939693 0   
     length 7.73805   
     axis 0 0 20   XYZ
    dof rx
    limits (-10.0 170.0)
  end
  begin
     id 4 
     name lfoot
     direction 0.107174 -0.294458 0.949636   
     length 2.25864   
     axis -90 7.62852e-016 20   XYZ
    dof rx rz
    limits (-45.0 90.0)
           (-70.0 20.0)
  end
  begin
     id 5 
     name ltoes
     direction 1.53606e-011 -4.21934e-011 1   
     length 1.12451   
     axis -90 7.62852e-016 20   XYZ
    dof rx
    limits (-90.0 20.0)
  end
  begin
     id 6 
     name rhipjoint
     direction -0.524745 -0.766967 0.36933   
     length 2.44538  
     axis 0 0 0  XYZ 
  end
  begin
     id 7 
     name rfemur
     direction -0.34202 -0.939693 0   
     length 7.61604   
     axis 0 0 -20   XYZ
    dof rx ry rz
    limits (-160.0 20.0)
           (-70.0 70.0)
           (-70.0 60.0)
  end
  begin
     id 8 
     name rtibia
     direction -0.34202 -0.939693 0   
     length 7.61056   
     axis 0 0 -20   XYZ
    dof rx
    limits (-10.0 170.0)
 end
 begin
     id 9 
     name rfoot
     direction -0.12616 -0.346623 0.929482   
     length 2.46372  
     axis -90 -7.62852e-016 -20   XYZ
    dof rx rz
    limits (-45.0 90.0)
           (-20.0 70.0)
  end
  begin
     id 10 
     name rtoes
     direction -1.53531e-011 -4.22004e-011 1   
     length 1.21611   
     axis -90 -7.62852e-016 -20   XYZ
    dof rx
    limits (-90.0 20.0)
  end
  begin
     id 11 
     name lowerback
     direction -0.000778023 0.997293 -0.0735223   
     length 2.06139   
     axis 0 0 0   XYZ
    dof rx ry rz
    limits (-20.0 45.0)
           (-30.0 30.0)
           (-30.0 30.0)
  end
  begin
     id 12 
     name upperback
     direction 0.0222598 0.999722 -0.0078355   
     length 2.06383   
     axis 0 0 0   XYZ
    dof rx ry rz
    limits (-20.0 45.0)
           (-30.0 30.0)
           (-30.0 30.0)
  end
  begin
     id 13 
     name thorax
     direction 0.0219654 0.999405 0.0265994   
     length 2.07163   
     axis 0 0 0   XYZ
    dof rx ry rz
    limits (-20.0 45.0)
           (-30.0 30.0)
           (-30.0 30.0)
  end
  begin
     id 14 
     name lowerneck
     direction 0.0213282 0.988147 0.15202   
     length 1.75969   
     axis 0 0 0   XYZ
    dof rx ry rz
    limits (-20.0 45.0)
           (-30.0 30.0)
           (-30.0 30.0)
  end
  begin
     id 15 
     name upperneck
     direction -0.0546456 0.982624 -0.177379   
     length 1.79244   
     axis 0 0 0   XYZ
    dof rx ry rz
    limits (-20.0 45.0)
           (-30.0 30.0)
           (-30.0 30.0)
  end
  begin
     id 16
     name head
     direction -0.0199987 0.996855 -0.076686  
     length 1.80555  
     axis 0 0 0   XYZ
    dof rx ry rz
    limits (-20.0 45.0)
           (-30.0 30.0)
           (-30.0 30.0)
  end
  begin
     id 17 
     name lclavicle
     direction 0.929565 0.363219 -0.063096  
     length 3.55722  
     axis 0 0 0   XYZ
    dof ry rz
    limits (-20.0 10.0)
           (0.0 20.0)
  end
  begin
     id 18 
     name lhumerus
     direction 1 -4.48993e-011 -2.36203e-027   
     length 4.92785   
     axis 180 -30 -90   XYZ
    dof rx ry rz
    limits (-60.0 90.0)
           (-90.0 90.0)
           (-90.0 90.0)
  end
  begin
     id 19
     name lradius
     direction 1 -4.48947e-011 2.02997e-027   
     length 3.44052   
     axis 180 -30 -90   XYZ
    dof rx
    limits (-10.0 170.0)
  end
  begin
     id 20
     name lwrist
     direction 1 -4.48962e-011 1.45991e-027   
     length 1.72026   
     axis 1.49639e-024 90 90   XYZ
    dof ry
    limits (-180.0 0.0)
 end
  begin
     id 21 
     name lhand
     direction 1 -4.48984e-011 2.91906e-027   
     length 0.654326   
     axis -1.863e-015 90 90   XYZ
    dof rx rz
    limits (-90.0 90.0)
           (-45.0 45.0)
  end
  begin
     id 22 
     name lfingers
     direction 1 -4.48961e-011 5.83968e-027   
     length 0.527534   
     axis -3.72598e-015 90 90   XYZ
    dof rx
    limits (0.0 90.0)
  end
  begin
     id 23
     name lthumb
     direction 0.707107 -6.34963e-011 0.707107   
     length 0.757437   
     axis -90 45 -6.68868e-015   XYZ
    dof rx rz
    limits (-45.0 45.0)
           (-45.0 45.0)
  end
  begin
     id 24 
     name rclavicle
     direction -0.902944 0.422599 -0.0781198   
     length 3.54432  
     axis 0 0 0   XYZ 
    dof ry rz
    limits (-10.0 20.0)
           (-20.0 0.0)
  end
  begin
     id 25 
     name rhumerus
     direction -1 -4.48953e-011 -4.75835e-028  
     length 5.09181   
     axis 180 30 90   XYZ
    dof rx ry rz
    limits (-90.0 60.0)
           (-90.0 90.0)
           (-90.0 90.0)
  end
  begin
     id 26 
     name rradius
     direction -1 -4.48986e-011 -3.25889e-027   
     length 3.49865   
     axis 180 30 90   XYZ
    dof rx
    limits (-10.0 170.0)
  end
  begin
     id 27 
     name rwrist
     direction -1 -4.48963e-011 1.45989e-027   
     length 1.74933   
     axis 1.49639e-024 -90 -90   XYZ
    dof ry
    limits (-180.0 0.0)
  end
  begin
     id 28
     name rhand
     direction -1 -4.49003e-011 2.91844e-027   
     length 0.66641   
     axis -1.863e-015 -90 -90   XYZ
    dof rx rz
    limits (-90.0 90.0)
           (-45.0 45.0)
  end
  begin
     id 29
     name rfingers
     direction -1 -4.48973e-011 5.83886e-027   
     length 0.537277   
     axis -3.72598e-015 -90 -90   XYZ
    dof rx
    limits (0.0 90.0)
  end
  begin
     id 30
     name rthumb
     direction -0.707107 -6.34976e-011 0.707107   
     length 0.771425   
     axis -90 -45 6.68868e-015   XYZ
    dof rx rz
    limits (-45.0 45.0)
           (-45.0 45.0)
  end
:hierarchy
  begin
    root lhipjoint rhipjoint lowerback
    lhipjoint lfemur
    lfemur ltibia
    ltibia lfoot
    lfoot ltoes
    rhipjoint rfemur
    rfemur rtibia
    rtibia rfoot
    rfoot rtoes
    lowerback upperback
    upperback thorax
    thorax lowerneck lclavicle rclavicle
    lowerneck upperneck
    upperneck head
    lclavicle lhumerus
    lhumerus lradius
    lradius lwrist
    lwrist lhand lthumb
    lhand lfingers
    rclavicle rhumerus
    rhumerus rradius
    rradius rwrist
    rwrist rhand rthumb
    rhand rfingers
  end

#!OML:ASF H:\LiuWeirdWalks\Patient Classification 1\Patient 1\Session 1\male.ASF
:FULLY-SPECIFIED
:DEGREES
46
root 0.0202215 17.8263 -28.8102 -0.00815201 34.6271 -1.65557
lowerback 1.41421 5.16184 -0.52991
upperback 0.886215 6.90559 3.38036
thorax -0.358667 3.46264 3.62225
lowerneck 11.0055 22.3262 6.51258
upperneck -7.99625 29.9107 -14.3239
head -0.950821 15.4708 -5.55343
rclavicle -7.09164e-014 -3.97569e-014
rhumerus -39.3737 -16.5097 -63.2809
rradius 22.9083
rwrist -1.16431
rhand -21.3805 -0.499878
rfingers 7.12502
rthumb 5.00692 -30.4207
lclavicle -7.09164e-014 -3.97569e-014
lhumerus -31.5885 32.905 75.3567
lradius 18.4897
lwrist -1.1084
lhand -20.0334 -8.61534
lfingers 7.12502
lthumb 6.30758 21.2707
rfemur 1.21228 -14.1088 20.568
rtibia 25.8525
rfoot -20.4297 -41.8599
rtoes 2.72137
lfemur -12.2622 -10.2996 -12.2669
ltibia 28.7359
lfoot -13.7104 -0.729039
ltoes -10.8308
47
root 0.0229721 17.8261 -28.8075 -0.0344881 34.393 -1.68288
lowerback 1.39777 5.16696 -0.51649
upperback 0.8543 6.91245 3.34199
thorax -0.376424 3.46622 3.57522
lowerneck 11.0942 22.3109 6.56993
upperneck -8.13785 29.8874 -14.3717
head -0.993466 15.4638 -5.59228
rclavicle -1.08984e-013 0
rhumerus -39.4053 -16.4744 -63.3356
rradius 22.8994
rwrist -1.28651
rhand -21.3171 -0.663087
rfingers 7.12502
rthumb 5.06814 -30.5825
lclavicle -1.08984e-013 0
lhumerus -31.6741 33.0264 75.1258
lradius 18.3888
lwrist -1.35397
lhand -19.9781 -8.42478
lfingers 7.12502
lthumb 6.36094 21.4597
rfemur 1.25097 -14.0017 20.5672
rtibia 25.803
rfoot -20.3523 -41.7521
rtoes 2.66729
lfemur -12.1806 -10.2181 -12.2517
ltibia 28.7489
lfoot -13.7265 -0.578182
ltoes -10.8882
48
root 0.0256098 17.8258 -28.805 -0.0636687 34.1632 -1.7164
lowerback 1.37923 5.1667 -0.50637
upperback 0.830678 6.91204 3.31343
thorax -0.385603 3.46608 3.54096
lowerneck 11.1486 22.3115 6.58554
upperneck -8.31373 29.8767 -14.4183
head -1.04618 15.4634 -5.62594
rclavicle -1.51225e-013 1.51076e-014
rhumerus -39.4309 -16.4362 -63.3825
rradius 22.9707
rwrist -1.51241
rhand -21.1792 -0.907987
rfingers 7.12502
rthumb 5.20137 -30.8242
lclavicle -1.51225e-013 1.51076e-014
lhumerus -31.7363 33.1255 74.9259
lradius 18.3067
lwrist -1.53957
lhand -19.9102 -8.20586
lfingers 7.12502
lthumb 6.42649 21.6766
rfemur 1.29016 -13.8921 20.5737
rtibia 25.7533
rfoot -20.2923 -41.6436
rtoes 2.62413
lfemur -12.1006 -10.1382 -12.2296
ltibia 28.7619
lfoot -13.7437 -0.431232
ltoes -10.9052
49
root 0.0284565 17.8257 -28.8028 -0.0827262 33.9364 -1.73968
lowerback 1.35837 5.18191 -0.498828
upperback 0.804111 6.93209 3.27304
thorax -0.396685 3.47615 3.49548
lowerneck 11.1745 22.3011 6.63357
upperneck -8.49212 29.8549 -14.4623
head -1.09249 15.4556 -5.65833
rclavicle 3.48867e-014 -1.19271e-014
rhumerus -39.4963 -16.4521 -63.4059
rradius 23.064
rwrist -1.61164
rhand -21.0623 -1.12659
rfingers 7.12502
rthumb 5.31423 -31.04
lclavicle 3.48867e-014 -1.19271e-014
lhumerus -31.7622 33.1091 74.7748
lradius 18.2438
lwrist -1.64861
lhand -19.8221 -7.9701
lfingers 7.12502
lthumb 6.51159 21.9098
rfemur 1.32574 -13.7928 20.5679
rtibia 25.7042
rfoot -20.2407 -41.5221
rtoes 2.57838
lfemur -12.0241 -10.0562 -12.2176
ltibia 28.7737
lfoot -13.7604 -0.287044
ltoes -10.8738
50
root 0.0314026 17.8258 -28.8012 -0.0919148 33.7097 -1.75786
lowerback 1.33794 5.20127 -0.497089
upperback 0.772535 6.95778 3.23305
thorax -0.41422 3.48914 3.45309
lowerneck 11.1719 22.283 6.7017
upperneck -8.62665 29.8284 -14.5079
head -1.11881 15.444 -5.68535
rclavicle 9.29318e-014 3.97569e-015
rhumerus -39.5613 -16.4616 -63.4195
rradius 23.1906
rwrist -1.79287
rhand -20.8643 -1.37064
rfingers 7.12502
rthumb 5.50536 -31.2791
lclavicle 9.29318e-014 3.97569e-015
lhumerus -31.7708 33.0452 74.6543
lradius 18.1953
lwrist -1.67254
lhand -19.7219 -7.7154
lfingers 7.12502
lthumb 6.60829 22.1615
rfemur 1.34992 -13.701 20.5557
rtibia 25.6592
rfoot -20.1811 -41.3927
rtoes 2.52203
lfemur -11.9552 -9.96893 -12.2099
ltibia 28.7811
lfoot -13.7736 -0.147083
ltoes -10.8195
